<svg width="100%" height="100%" viewBox="0 0 32 32" fill="none" xmlns="http://www.w3.org/2000/svg">
<path d="M15.4 7.59998C15.5404 7.59994 15.6764 7.64915 15.7843 7.73905C15.8922 7.82895 15.9651 7.95385 15.9904 8.09198L16 8.19998V11.8C16.0001 12.4916 15.7613 13.162 15.324 13.6977C14.8866 14.2335 14.2776 14.6017 13.6 14.74V23.8C13.6003 23.9499 13.5444 24.0945 13.4434 24.2053C13.3424 24.3161 13.2035 24.3851 13.0542 24.3986C12.9049 24.4122 12.7559 24.3693 12.6366 24.2785C12.5173 24.1877 12.4363 24.0555 12.4096 23.908L12.4 23.8V14.74C11.757 14.6085 11.1748 14.2698 10.7427 13.7759C10.3105 13.2819 10.0521 12.66 10.0072 12.0052L10 11.8V8.19998C9.99973 8.05005 10.0556 7.90544 10.1566 7.79464C10.2576 7.68384 10.3965 7.61488 10.5458 7.60133C10.6951 7.58779 10.8441 7.63064 10.9634 7.72145C11.0827 7.81226 11.1637 7.94445 11.1904 8.09198L11.2 8.19998V11.8C11.1998 12.1724 11.3151 12.5357 11.53 12.8398C11.745 13.1439 12.0489 13.3739 12.4 13.498V8.19998C12.3997 8.05005 12.4556 7.90544 12.5566 7.79464C12.6576 7.68384 12.7965 7.61488 12.9458 7.60133C13.0951 7.58779 13.2441 7.63064 13.3634 7.72145C13.4827 7.81226 13.5637 7.94445 13.5904 8.09198L13.6 8.19998V13.4968C14.2456 13.2688 14.722 12.6832 14.7916 11.9788L14.8 11.8V8.19998C14.8 8.04085 14.8632 7.88824 14.9757 7.77572C15.0883 7.6632 15.2409 7.59998 15.4 7.59998ZM21.4 7.59998C21.5404 7.59994 21.6764 7.64915 21.7843 7.73905C21.8922 7.82895 21.9651 7.95385 21.9904 8.09198L22 8.19998V23.8C22.0003 23.9499 21.9444 24.0945 21.8434 24.2053C21.7424 24.3161 21.6035 24.3851 21.4542 24.3986C21.3049 24.4122 21.1559 24.3693 21.0366 24.2785C20.9173 24.1877 20.8363 24.0555 20.8096 23.908L20.8 23.8V17.2H19C18.8596 17.2 18.7236 17.1508 18.6157 17.0609C18.5078 16.971 18.4349 16.8461 18.4096 16.708L18.4 16.6V10.6C18.4 9.80433 18.7161 9.04127 19.2787 8.47866C19.8413 7.91605 20.6043 7.59998 21.4 7.59998ZM20.8 16V8.90198C20.1544 9.12998 19.678 9.71558 19.6084 10.4212L19.6 10.6V16H20.8Z" fill="#FFAA7A" stroke="#FFAA7A" stroke-width="0.6"/>
<rect x="0.8" y="0.8" width="30.4" height="30.4" rx="7.2" stroke="#FFAA7A" stroke-width="1.6"/>
</svg>
