<svg width="228" height="32" viewBox="0 0 228 32" fill="none" xmlns="http://www.w3.org/2000/svg">
<path d="M15.4 7.59998C15.5404 7.59994 15.6764 7.64915 15.7843 7.73905C15.8922 7.82895 15.9651 7.95385 15.9904 8.09198L16 8.19998V11.8C16.0001 12.4916 15.7613 13.162 15.324 13.6977C14.8866 14.2335 14.2776 14.6017 13.6 14.74V23.8C13.6003 23.9499 13.5444 24.0945 13.4434 24.2053C13.3424 24.3161 13.2035 24.3851 13.0542 24.3986C12.9049 24.4122 12.7559 24.3693 12.6366 24.2785C12.5173 24.1877 12.4363 24.0555 12.4096 23.908L12.4 23.8V14.74C11.757 14.6085 11.1748 14.2698 10.7427 13.7759C10.3105 13.2819 10.0521 12.66 10.0072 12.0052L10 11.8V8.19998C9.99973 8.05005 10.0556 7.90544 10.1566 7.79464C10.2576 7.68384 10.3965 7.61488 10.5458 7.60133C10.6951 7.58779 10.8441 7.63064 10.9634 7.72145C11.0827 7.81226 11.1637 7.94445 11.1904 8.09198L11.2 8.19998V11.8C11.1998 12.1724 11.3151 12.5357 11.53 12.8398C11.745 13.1439 12.0489 13.3739 12.4 13.498V8.19998C12.3997 8.05005 12.4556 7.90544 12.5566 7.79464C12.6576 7.68384 12.7965 7.61488 12.9458 7.60133C13.0951 7.58779 13.2441 7.63064 13.3634 7.72145C13.4827 7.81226 13.5637 7.94445 13.5904 8.09198L13.6 8.19998V13.4968C14.2456 13.2688 14.722 12.6832 14.7916 11.9788L14.8 11.8V8.19998C14.8 8.04085 14.8632 7.88824 14.9757 7.77572C15.0883 7.6632 15.2409 7.59998 15.4 7.59998ZM21.4 7.59998C21.5404 7.59994 21.6764 7.64915 21.7843 7.73905C21.8922 7.82895 21.9651 7.95385 21.9904 8.09198L22 8.19998V23.8C22.0003 23.9499 21.9444 24.0945 21.8434 24.2053C21.7424 24.3161 21.6035 24.3851 21.4542 24.3986C21.3049 24.4122 21.1559 24.3693 21.0366 24.2785C20.9173 24.1877 20.8363 24.0555 20.8096 23.908L20.8 23.8V17.2H19C18.8596 17.2 18.7236 17.1508 18.6157 17.0609C18.5078 16.971 18.4349 16.8461 18.4096 16.708L18.4 16.6V10.6C18.4 9.80433 18.7161 9.04127 19.2787 8.47866C19.8413 7.91605 20.6043 7.59998 21.4 7.59998ZM20.8 16V8.90198C20.1544 9.12998 19.678 9.71558 19.6084 10.4212L19.6 10.6V16H20.8Z" fill="#FF7C33" stroke="#FF7C33" stroke-width="0.6"/>
<rect x="0.8" y="0.8" width="30.4" height="30.4" rx="7.2" stroke="#FF7C33" stroke-width="1.6"/>
<path d="M49.988 18.512H46.844L46.34 20H44.192L47.24 11.576H49.616L52.664 20H50.492L49.988 18.512ZM49.46 16.928L48.416 13.844L47.384 16.928H49.46ZM67.7637 11.576L65.5677 20H63.0837L61.7397 14.456L60.3477 20H57.8637L55.7277 11.576H57.9237L59.1357 17.708L60.6357 11.576H62.8917L64.3317 17.708L65.5557 11.576H67.7637ZM73.4247 13.22V14.924H76.1727V16.508H73.4247V18.356H76.5328V20H71.3727V11.576H76.5328V13.22H73.4247ZM83.4929 20.084C82.8769 20.084 82.3249 19.984 81.8369 19.784C81.3489 19.584 80.9569 19.288 80.6609 18.896C80.3729 18.504 80.2209 18.032 80.2049 17.48H82.3889C82.4209 17.792 82.5289 18.032 82.7129 18.2C82.8969 18.36 83.1369 18.44 83.4329 18.44C83.7369 18.44 83.9769 18.372 84.1529 18.236C84.3289 18.092 84.4169 17.896 84.4169 17.648C84.4169 17.44 84.3449 17.268 84.2009 17.132C84.0649 16.996 83.8929 16.884 83.6849 16.796C83.4849 16.708 83.1969 16.608 82.8209 16.496C82.2769 16.328 81.8329 16.16 81.4889 15.992C81.1449 15.824 80.8489 15.576 80.6009 15.248C80.3529 14.92 80.2289 14.492 80.2289 13.964C80.2289 13.18 80.5129 12.568 81.0809 12.128C81.6489 11.68 82.3889 11.456 83.3009 11.456C84.2289 11.456 84.9769 11.68 85.5449 12.128C86.1129 12.568 86.4169 13.184 86.4569 13.976H84.2369C84.2209 13.704 84.1209 13.492 83.9369 13.34C83.7529 13.18 83.5169 13.1 83.2289 13.1C82.9809 13.1 82.7809 13.168 82.6289 13.304C82.4769 13.432 82.4009 13.62 82.4009 13.868C82.4009 14.14 82.5289 14.352 82.7849 14.504C83.0409 14.656 83.4409 14.82 83.9849 14.996C84.5289 15.18 84.9689 15.356 85.3049 15.524C85.6489 15.692 85.9449 15.936 86.1929 16.256C86.4409 16.576 86.5649 16.988 86.5649 17.492C86.5649 17.972 86.4409 18.408 86.1929 18.8C85.9529 19.192 85.6009 19.504 85.1369 19.736C84.6729 19.968 84.1249 20.084 83.4929 20.084ZM94.3917 20.084C93.5997 20.084 92.8717 19.9 92.2077 19.532C91.5517 19.164 91.0277 18.652 90.6357 17.996C90.2517 17.332 90.0597 16.588 90.0597 15.764C90.0597 14.94 90.2517 14.2 90.6357 13.544C91.0277 12.888 91.5517 12.376 92.2077 12.008C92.8717 11.64 93.5997 11.456 94.3917 11.456C95.1838 11.456 95.9078 11.64 96.5638 12.008C97.2278 12.376 97.7478 12.888 98.1238 13.544C98.5078 14.2 98.6997 14.94 98.6997 15.764C98.6997 16.588 98.5078 17.332 98.1238 17.996C97.7397 18.652 97.2197 19.164 96.5638 19.532C95.9078 19.9 95.1838 20.084 94.3917 20.084ZM94.3917 18.212C95.0637 18.212 95.5997 17.988 95.9997 17.54C96.4078 17.092 96.6118 16.5 96.6118 15.764C96.6118 15.02 96.4078 14.428 95.9997 13.988C95.5997 13.54 95.0637 13.316 94.3917 13.316C93.7117 13.316 93.1677 13.536 92.7597 13.976C92.3597 14.416 92.1597 15.012 92.1597 15.764C92.1597 16.508 92.3597 17.104 92.7597 17.552C93.1677 17.992 93.7117 18.212 94.3917 18.212ZM111.961 11.576V20H109.909V14.948L108.025 20H106.369L104.473 14.936V20H102.421V11.576H104.845L107.209 17.408L109.549 11.576H111.961ZM118.069 13.22V14.924H120.817V16.508H118.069V18.356H121.177V20H116.017V11.576H121.177V13.22H118.069ZM135.696 11.576V13.22H132.264V14.996H134.832V16.592H132.264V20H130.212V11.576H135.696ZM143.339 20.084C142.547 20.084 141.819 19.9 141.155 19.532C140.499 19.164 139.975 18.652 139.583 17.996C139.199 17.332 139.007 16.588 139.007 15.764C139.007 14.94 139.199 14.2 139.583 13.544C139.975 12.888 140.499 12.376 141.155 12.008C141.819 11.64 142.547 11.456 143.339 11.456C144.131 11.456 144.855 11.64 145.511 12.008C146.175 12.376 146.695 12.888 147.071 13.544C147.455 14.2 147.647 14.94 147.647 15.764C147.647 16.588 147.455 17.332 147.071 17.996C146.687 18.652 146.167 19.164 145.511 19.532C144.855 19.9 144.131 20.084 143.339 20.084ZM143.339 18.212C144.011 18.212 144.547 17.988 144.947 17.54C145.355 17.092 145.559 16.5 145.559 15.764C145.559 15.02 145.355 14.428 144.947 13.988C144.547 13.54 144.011 13.316 143.339 13.316C142.659 13.316 142.115 13.536 141.707 13.976C141.307 14.416 141.107 15.012 141.107 15.764C141.107 16.508 141.307 17.104 141.707 17.552C142.115 17.992 142.659 18.212 143.339 18.212ZM155.352 20.084C154.56 20.084 153.832 19.9 153.168 19.532C152.512 19.164 151.988 18.652 151.596 17.996C151.212 17.332 151.02 16.588 151.02 15.764C151.02 14.94 151.212 14.2 151.596 13.544C151.988 12.888 152.512 12.376 153.168 12.008C153.832 11.64 154.56 11.456 155.352 11.456C156.144 11.456 156.868 11.64 157.524 12.008C158.188 12.376 158.708 12.888 159.084 13.544C159.468 14.2 159.66 14.94 159.66 15.764C159.66 16.588 159.468 17.332 159.084 17.996C158.7 18.652 158.18 19.164 157.524 19.532C156.868 19.9 156.144 20.084 155.352 20.084ZM155.352 18.212C156.024 18.212 156.56 17.988 156.96 17.54C157.368 17.092 157.572 16.5 157.572 15.764C157.572 15.02 157.368 14.428 156.96 13.988C156.56 13.54 156.024 13.316 155.352 13.316C154.672 13.316 154.128 13.536 153.72 13.976C153.32 14.416 153.12 15.012 153.12 15.764C153.12 16.508 153.32 17.104 153.72 17.552C154.128 17.992 154.672 18.212 155.352 18.212ZM166.538 11.576C167.426 11.576 168.202 11.752 168.866 12.104C169.53 12.456 170.042 12.952 170.402 13.592C170.77 14.224 170.954 14.956 170.954 15.788C170.954 16.612 170.77 17.344 170.402 17.984C170.042 18.624 169.526 19.12 168.854 19.472C168.19 19.824 167.418 20 166.538 20H163.382V11.576H166.538ZM166.406 18.224C167.182 18.224 167.786 18.012 168.218 17.588C168.65 17.164 168.866 16.564 168.866 15.788C168.866 15.012 168.65 14.408 168.218 13.976C167.786 13.544 167.182 13.328 166.406 13.328H165.434V18.224H166.406ZM182.852 20.084C182.236 20.084 181.684 19.984 181.196 19.784C180.708 19.584 180.316 19.288 180.02 18.896C179.732 18.504 179.58 18.032 179.564 17.48H181.748C181.78 17.792 181.888 18.032 182.072 18.2C182.256 18.36 182.496 18.44 182.792 18.44C183.096 18.44 183.336 18.372 183.512 18.236C183.688 18.092 183.776 17.896 183.776 17.648C183.776 17.44 183.704 17.268 183.56 17.132C183.424 16.996 183.252 16.884 183.044 16.796C182.844 16.708 182.556 16.608 182.18 16.496C181.636 16.328 181.192 16.16 180.848 15.992C180.504 15.824 180.208 15.576 179.96 15.248C179.712 14.92 179.588 14.492 179.588 13.964C179.588 13.18 179.872 12.568 180.44 12.128C181.008 11.68 181.748 11.456 182.66 11.456C183.588 11.456 184.336 11.68 184.904 12.128C185.472 12.568 185.776 13.184 185.816 13.976H183.596C183.58 13.704 183.48 13.492 183.296 13.34C183.112 13.18 182.876 13.1 182.588 13.1C182.34 13.1 182.14 13.168 181.988 13.304C181.836 13.432 181.76 13.62 181.76 13.868C181.76 14.14 181.888 14.352 182.144 14.504C182.4 14.656 182.8 14.82 183.344 14.996C183.888 15.18 184.328 15.356 184.664 15.524C185.008 15.692 185.304 15.936 185.552 16.256C185.8 16.576 185.924 16.988 185.924 17.492C185.924 17.972 185.8 18.408 185.552 18.8C185.312 19.192 184.96 19.504 184.496 19.736C184.032 19.968 183.484 20.084 182.852 20.084ZM195.826 11.576V13.22H193.594V20H191.542V13.22H189.31V11.576H195.826ZM203.42 20.084C202.628 20.084 201.9 19.9 201.236 19.532C200.58 19.164 200.056 18.652 199.664 17.996C199.28 17.332 199.088 16.588 199.088 15.764C199.088 14.94 199.28 14.2 199.664 13.544C200.056 12.888 200.58 12.376 201.236 12.008C201.9 11.64 202.628 11.456 203.42 11.456C204.212 11.456 204.936 11.64 205.592 12.008C206.256 12.376 206.776 12.888 207.152 13.544C207.536 14.2 207.728 14.94 207.728 15.764C207.728 16.588 207.536 17.332 207.152 17.996C206.768 18.652 206.248 19.164 205.592 19.532C204.936 19.9 204.212 20.084 203.42 20.084ZM203.42 18.212C204.092 18.212 204.628 17.988 205.028 17.54C205.436 17.092 205.64 16.5 205.64 15.764C205.64 15.02 205.436 14.428 205.028 13.988C204.628 13.54 204.092 13.316 203.42 13.316C202.74 13.316 202.196 13.536 201.788 13.976C201.388 14.416 201.188 15.012 201.188 15.764C201.188 16.508 201.388 17.104 201.788 17.552C202.196 17.992 202.74 18.212 203.42 18.212ZM215.746 20L213.994 16.82H213.502V20H211.45V11.576H214.894C215.558 11.576 216.122 11.692 216.586 11.924C217.058 12.156 217.41 12.476 217.642 12.884C217.874 13.284 217.99 13.732 217.99 14.228C217.99 14.788 217.83 15.288 217.51 15.728C217.198 16.168 216.734 16.48 216.118 16.664L218.062 20H215.746ZM213.502 15.368H214.774C215.15 15.368 215.43 15.276 215.614 15.092C215.806 14.908 215.902 14.648 215.902 14.312C215.902 13.992 215.806 13.74 215.614 13.556C215.43 13.372 215.15 13.28 214.774 13.28H213.502V15.368ZM223.91 13.22V14.924H226.658V16.508H223.91V18.356H227.018V20H221.858V11.576H227.018V13.22H223.91Z" fill="#FF7C33"/>
</svg>
