<svg width="215" height="24" viewBox="0 0 215 24" fill="none" xmlns="http://www.w3.org/2000/svg">
<path d="M11.6 6.39991C11.6936 6.39988 11.7843 6.43268 11.8562 6.49262C11.9281 6.55255 11.9767 6.63582 11.9936 6.72791L12 6.79991V9.19991C12.0001 9.66097 11.8409 10.1079 11.5493 10.4651C11.2578 10.8222 10.8517 11.0677 10.4 11.1599V17.1999C10.4002 17.2999 10.3629 17.3963 10.2956 17.4701C10.2283 17.544 10.1357 17.59 10.0361 17.599C9.9366 17.608 9.83727 17.5795 9.75774 17.5189C9.6782 17.4584 9.62421 17.3703 9.6064 17.2719L9.6 17.1999V11.1599C9.17133 11.0722 8.78322 10.8465 8.49511 10.5172C8.20699 10.1879 8.03477 9.77322 8.0048 9.33671L8 9.19991V6.79991C7.99982 6.69995 8.03706 6.60355 8.10441 6.52968C8.17175 6.45581 8.26431 6.40984 8.36386 6.40081C8.46341 6.39178 8.56273 6.42034 8.64227 6.48088C8.7218 6.54142 8.77579 6.62955 8.7936 6.72791L8.8 6.79991V9.19991C8.79987 9.44817 8.87674 9.69036 9.02002 9.8931C9.1633 10.0958 9.36594 10.2492 9.6 10.3319V6.79991C9.59982 6.69995 9.63706 6.60355 9.70441 6.52968C9.77175 6.45581 9.86431 6.40984 9.96386 6.40081C10.0634 6.39178 10.1627 6.42034 10.2423 6.48088C10.3218 6.54142 10.3758 6.62955 10.3936 6.72791L10.4 6.79991V10.3311C10.8304 10.1791 11.148 9.78871 11.1944 9.31911L11.2 9.19991V6.79991C11.2 6.69382 11.2421 6.59208 11.3172 6.51706C11.3922 6.44205 11.4939 6.39991 11.6 6.39991ZM15.6 6.39991C15.6936 6.39988 15.7843 6.43268 15.8562 6.49262C15.9281 6.55255 15.9767 6.63582 15.9936 6.72791L16 6.79991V17.1999C16.0002 17.2999 15.9629 17.3963 15.8956 17.4701C15.8282 17.544 15.7357 17.59 15.6361 17.599C15.5366 17.608 15.4373 17.5795 15.3577 17.5189C15.2782 17.4584 15.2242 17.3703 15.2064 17.2719L15.2 17.1999V12.7999H14C13.9064 12.7999 13.8157 12.7671 13.7438 12.7072C13.6719 12.6473 13.6233 12.564 13.6064 12.4719L13.6 12.3999V8.39991C13.6 7.86947 13.8107 7.36077 14.1858 6.98569C14.5609 6.61062 15.0696 6.39991 15.6 6.39991ZM15.2 11.9999V7.26791C14.7696 7.41991 14.452 7.81031 14.4056 8.28071L14.4 8.39991V11.9999H15.2Z" fill="#FF7C33"/>
<rect x="0.5" y="0.5" width="23" height="23" rx="11.5" stroke="#FF7C33"/>
<path d="M37.964 14.404H34.628L34.076 16H32.312L35.324 7.612H37.28L40.292 16H38.516L37.964 14.404ZM37.508 13.06L36.296 9.556L35.084 13.06H37.508ZM55.1938 7.624L52.8538 16H50.8738L49.3018 10.036L47.6578 16L45.6898 16.012L43.4338 7.624H45.2338L46.7098 14.128L48.4138 7.624H50.2858L51.8938 14.092L53.3818 7.624H55.1938ZM60.5508 8.98V11.08H63.3708V12.412H60.5508V14.632H63.7308V16H58.8708V7.612H63.7308V8.98H60.5508ZM70.7295 16.084C70.1455 16.084 69.6175 15.984 69.1455 15.784C68.6815 15.584 68.3135 15.296 68.0415 14.92C67.7695 14.544 67.6295 14.1 67.6215 13.588H69.4215C69.4455 13.932 69.5655 14.204 69.7815 14.404C70.0055 14.604 70.3095 14.704 70.6935 14.704C71.0855 14.704 71.3935 14.612 71.6175 14.428C71.8415 14.236 71.9535 13.988 71.9535 13.684C71.9535 13.436 71.8775 13.232 71.7255 13.072C71.5735 12.912 71.3815 12.788 71.1495 12.7C70.9255 12.604 70.6135 12.5 70.2135 12.388C69.6695 12.228 69.2255 12.072 68.8815 11.92C68.5455 11.76 68.2535 11.524 68.0055 11.212C67.7655 10.892 67.6455 10.468 67.6455 9.94C67.6455 9.444 67.7695 9.012 68.0175 8.644C68.2655 8.276 68.6135 7.996 69.0615 7.804C69.5095 7.604 70.0215 7.504 70.5975 7.504C71.4615 7.504 72.1615 7.716 72.6975 8.14C73.2415 8.556 73.5415 9.14 73.5975 9.892H71.7495C71.7335 9.604 71.6095 9.368 71.3775 9.184C71.1535 8.992 70.8535 8.896 70.4775 8.896C70.1495 8.896 69.8855 8.98 69.6855 9.148C69.4935 9.316 69.3975 9.56 69.3975 9.88C69.3975 10.104 69.4695 10.292 69.6135 10.444C69.7655 10.588 69.9495 10.708 70.1655 10.804C70.3895 10.892 70.7015 10.996 71.1015 11.116C71.6455 11.276 72.0895 11.436 72.4335 11.596C72.7775 11.756 73.0735 11.996 73.3215 12.316C73.5695 12.636 73.6935 13.056 73.6935 13.576C73.6935 14.024 73.5775 14.44 73.3455 14.824C73.1135 15.208 72.7735 15.516 72.3255 15.748C71.8775 15.972 71.3455 16.084 70.7295 16.084ZM81.618 16.084C80.834 16.084 80.114 15.9 79.458 15.532C78.802 15.164 78.282 14.656 77.898 14.008C77.514 13.352 77.322 12.612 77.322 11.788C77.322 10.972 77.514 10.24 77.898 9.592C78.282 8.936 78.802 8.424 79.458 8.056C80.114 7.688 80.834 7.504 81.618 7.504C82.41 7.504 83.13 7.688 83.778 8.056C84.434 8.424 84.95 8.936 85.326 9.592C85.71 10.24 85.902 10.972 85.902 11.788C85.902 12.612 85.71 13.352 85.326 14.008C84.95 14.656 84.434 15.164 83.778 15.532C83.122 15.9 82.402 16.084 81.618 16.084ZM81.618 14.584C82.122 14.584 82.566 14.472 82.95 14.248C83.334 14.016 83.634 13.688 83.85 13.264C84.066 12.84 84.174 12.348 84.174 11.788C84.174 11.228 84.066 10.74 83.85 10.324C83.634 9.9 83.334 9.576 82.95 9.352C82.566 9.128 82.122 9.016 81.618 9.016C81.114 9.016 80.666 9.128 80.274 9.352C79.89 9.576 79.59 9.9 79.374 10.324C79.158 10.74 79.05 11.228 79.05 11.788C79.05 12.348 79.158 12.84 79.374 13.264C79.59 13.688 79.89 14.016 80.274 14.248C80.666 14.472 81.114 14.584 81.618 14.584ZM98.8639 7.624V16H97.1839V10.552L94.9399 16H93.6679L91.4119 10.552V16H89.7319V7.624H91.6399L94.3039 13.852L96.9679 7.624H98.8639ZM104.785 8.98V11.08H107.605V12.412H104.785V14.632H107.965V16H103.105V7.612H107.965V8.98H104.785ZM122.683 7.624V8.98H119.191V11.128H121.867V12.46H119.191V16H117.511V7.624H122.683ZM130.342 16.084C129.558 16.084 128.838 15.9 128.182 15.532C127.526 15.164 127.006 14.656 126.622 14.008C126.238 13.352 126.046 12.612 126.046 11.788C126.046 10.972 126.238 10.24 126.622 9.592C127.006 8.936 127.526 8.424 128.182 8.056C128.838 7.688 129.558 7.504 130.342 7.504C131.134 7.504 131.854 7.688 132.502 8.056C133.158 8.424 133.674 8.936 134.05 9.592C134.434 10.24 134.626 10.972 134.626 11.788C134.626 12.612 134.434 13.352 134.05 14.008C133.674 14.656 133.158 15.164 132.502 15.532C131.846 15.9 131.126 16.084 130.342 16.084ZM130.342 14.584C130.846 14.584 131.29 14.472 131.674 14.248C132.058 14.016 132.358 13.688 132.574 13.264C132.79 12.84 132.898 12.348 132.898 11.788C132.898 11.228 132.79 10.74 132.574 10.324C132.358 9.9 132.058 9.576 131.674 9.352C131.29 9.128 130.846 9.016 130.342 9.016C129.838 9.016 129.39 9.128 128.998 9.352C128.614 9.576 128.314 9.9 128.098 10.324C127.882 10.74 127.774 11.228 127.774 11.788C127.774 12.348 127.882 12.84 128.098 13.264C128.314 13.688 128.614 14.016 128.998 14.248C129.39 14.472 129.838 14.584 130.342 14.584ZM142.344 16.084C141.56 16.084 140.84 15.9 140.184 15.532C139.528 15.164 139.008 14.656 138.624 14.008C138.24 13.352 138.048 12.612 138.048 11.788C138.048 10.972 138.24 10.24 138.624 9.592C139.008 8.936 139.528 8.424 140.184 8.056C140.84 7.688 141.56 7.504 142.344 7.504C143.136 7.504 143.856 7.688 144.504 8.056C145.16 8.424 145.676 8.936 146.052 9.592C146.436 10.24 146.628 10.972 146.628 11.788C146.628 12.612 146.436 13.352 146.052 14.008C145.676 14.656 145.16 15.164 144.504 15.532C143.848 15.9 143.128 16.084 142.344 16.084ZM142.344 14.584C142.848 14.584 143.292 14.472 143.676 14.248C144.06 14.016 144.36 13.688 144.576 13.264C144.792 12.84 144.9 12.348 144.9 11.788C144.9 11.228 144.792 10.74 144.576 10.324C144.36 9.9 144.06 9.576 143.676 9.352C143.292 9.128 142.848 9.016 142.344 9.016C141.84 9.016 141.392 9.128 141 9.352C140.616 9.576 140.316 9.9 140.1 10.324C139.884 10.74 139.776 11.228 139.776 11.788C139.776 12.348 139.884 12.84 140.1 13.264C140.316 13.688 140.616 14.016 141 14.248C141.392 14.472 141.84 14.584 142.344 14.584ZM153.386 7.624C154.266 7.624 155.038 7.796 155.702 8.14C156.374 8.484 156.89 8.976 157.25 9.616C157.618 10.248 157.802 10.984 157.802 11.824C157.802 12.664 157.618 13.4 157.25 14.032C156.89 14.656 156.374 15.14 155.702 15.484C155.038 15.828 154.266 16 153.386 16H150.458V7.624H153.386ZM153.326 14.572C154.206 14.572 154.886 14.332 155.366 13.852C155.846 13.372 156.086 12.696 156.086 11.824C156.086 10.952 155.846 10.272 155.366 9.784C154.886 9.288 154.206 9.04 153.326 9.04H152.138V14.572H153.326ZM169.971 16.084C169.387 16.084 168.859 15.984 168.387 15.784C167.923 15.584 167.555 15.296 167.283 14.92C167.011 14.544 166.871 14.1 166.863 13.588H168.663C168.687 13.932 168.807 14.204 169.023 14.404C169.247 14.604 169.551 14.704 169.935 14.704C170.327 14.704 170.635 14.612 170.859 14.428C171.083 14.236 171.195 13.988 171.195 13.684C171.195 13.436 171.119 13.232 170.967 13.072C170.815 12.912 170.623 12.788 170.391 12.7C170.167 12.604 169.855 12.5 169.455 12.388C168.911 12.228 168.467 12.072 168.123 11.92C167.787 11.76 167.495 11.524 167.247 11.212C167.007 10.892 166.887 10.468 166.887 9.94C166.887 9.444 167.011 9.012 167.259 8.644C167.507 8.276 167.855 7.996 168.303 7.804C168.751 7.604 169.263 7.504 169.839 7.504C170.703 7.504 171.403 7.716 171.939 8.14C172.483 8.556 172.783 9.14 172.839 9.892H170.991C170.975 9.604 170.851 9.368 170.619 9.184C170.395 8.992 170.095 8.896 169.719 8.896C169.391 8.896 169.127 8.98 168.927 9.148C168.735 9.316 168.639 9.56 168.639 9.88C168.639 10.104 168.711 10.292 168.855 10.444C169.007 10.588 169.191 10.708 169.407 10.804C169.631 10.892 169.943 10.996 170.343 11.116C170.887 11.276 171.331 11.436 171.675 11.596C172.019 11.756 172.315 11.996 172.563 12.316C172.811 12.636 172.935 13.056 172.935 13.576C172.935 14.024 172.819 14.44 172.587 14.824C172.355 15.208 172.015 15.516 171.567 15.748C171.119 15.972 170.587 16.084 169.971 16.084ZM182.671 7.624V8.98H180.439V16H178.759V8.98H176.527V7.624H182.671ZM190.365 16.084C189.581 16.084 188.861 15.9 188.205 15.532C187.549 15.164 187.029 14.656 186.645 14.008C186.261 13.352 186.069 12.612 186.069 11.788C186.069 10.972 186.261 10.24 186.645 9.592C187.029 8.936 187.549 8.424 188.205 8.056C188.861 7.688 189.581 7.504 190.365 7.504C191.157 7.504 191.877 7.688 192.525 8.056C193.181 8.424 193.697 8.936 194.073 9.592C194.457 10.24 194.649 10.972 194.649 11.788C194.649 12.612 194.457 13.352 194.073 14.008C193.697 14.656 193.181 15.164 192.525 15.532C191.869 15.9 191.149 16.084 190.365 16.084ZM190.365 14.584C190.869 14.584 191.313 14.472 191.697 14.248C192.081 14.016 192.381 13.688 192.597 13.264C192.813 12.84 192.921 12.348 192.921 11.788C192.921 11.228 192.813 10.74 192.597 10.324C192.381 9.9 192.081 9.576 191.697 9.352C191.313 9.128 190.869 9.016 190.365 9.016C189.861 9.016 189.413 9.128 189.021 9.352C188.637 9.576 188.337 9.9 188.121 10.324C187.905 10.74 187.797 11.228 187.797 11.788C187.797 12.348 187.905 12.84 188.121 13.264C188.337 13.688 188.637 14.016 189.021 14.248C189.413 14.472 189.861 14.584 190.365 14.584ZM202.799 16L200.951 12.736H200.159V16H198.479V7.624H201.623C202.271 7.624 202.823 7.74 203.279 7.972C203.735 8.196 204.075 8.504 204.299 8.896C204.531 9.28 204.647 9.712 204.647 10.192C204.647 10.744 204.487 11.244 204.167 11.692C203.847 12.132 203.371 12.436 202.739 12.604L204.743 16H202.799ZM200.159 11.476H201.563C202.019 11.476 202.359 11.368 202.583 11.152C202.807 10.928 202.919 10.62 202.919 10.228C202.919 9.844 202.807 9.548 202.583 9.34C202.359 9.124 202.019 9.016 201.563 9.016H200.159V11.476ZM210.427 8.98V11.08H213.247V12.412H210.427V14.632H213.607V16H208.747V7.612H213.607V8.98H210.427Z" fill="#FF7C33"/>
</svg>
